<?xml version="1.0" encoding="UTF-8" standalone="no"?>
<!DOCTYPE svg PUBLIC "-//W3C//DTD SVG 1.1//EN" "http://www.w3.org/Graphics/SVG/1.1/DTD/svg11.dtd">
<!-- Generated by graphviz version 2.38.0 (20140413.2041)
 -->
<!-- Title: Algoritmos_Geneticos Pages: 1 -->
<svg width="937pt" height="67pt" viewBox="0.00 0.00 936.73 67.00" xmlns="http://www.w3.org/2000/svg" xmlns:xlink="http://www.w3.org/1999/xlink">
<g id="graph0" class="graph" transform="scale(1 1) rotate(0) translate(4 63)">
<title>Algoritmos_Geneticos</title>
<polygon fill="white" stroke="none" points="-4,4 -4,-63 932.734,-63 932.734,4 -4,4"/>
<!-- genes aleatórios -->
<g id="node1" class="node"><title>genes aleatórios</title>
<ellipse fill="none" stroke="black" cx="70.8437" cy="-18" rx="70.6878" ry="18"/>
<text text-anchor="middle" x="70.8437" y="-14.3" font-family="Times,serif" font-size="14.00">genes aleatórios</text>
</g>
<!-- nova população -->
<g id="node2" class="node"><title>nova população</title>
<ellipse fill="none" stroke="black" cx="245.931" cy="-18" rx="68.4888" ry="18"/>
<text text-anchor="middle" x="245.931" y="-14.3" font-family="Times,serif" font-size="14.00">nova população</text>
</g>
<!-- genes aleatórios&#45;&gt;nova população -->
<g id="edge1" class="edge"><title>genes aleatórios-&gt;nova população</title>
<path fill="none" stroke="black" d="M141.746,-18C150.243,-18 158.963,-18 167.56,-18"/>
<polygon fill="black" stroke="black" points="167.576,-21.5001 177.576,-18 167.576,-14.5001 167.576,-21.5001"/>
</g>
<!-- seleção -->
<g id="node3" class="node"><title>seleção</title>
<ellipse fill="none" stroke="black" cx="388.522" cy="-41" rx="38.1938" ry="18"/>
<text text-anchor="middle" x="388.522" y="-37.3" font-family="Times,serif" font-size="14.00">seleção</text>
</g>
<!-- nova população&#45;&gt;seleção -->
<g id="edge2" class="edge"><title>nova população-&gt;seleção</title>
<path fill="none" stroke="black" d="M304.521,-27.4213C316.955,-29.4555 329.937,-31.5794 341.842,-33.527"/>
<polygon fill="black" stroke="black" points="341.551,-37.0259 351.985,-35.1864 342.682,-30.1177 341.551,-37.0259"/>
</g>
<!-- escolha dos pais -->
<g id="node4" class="node"><title>escolha dos pais</title>
<ellipse fill="none" stroke="black" cx="534.362" cy="-41" rx="71.4873" ry="18"/>
<text text-anchor="middle" x="534.362" y="-37.3" font-family="Times,serif" font-size="14.00">escolha dos pais</text>
</g>
<!-- seleção&#45;&gt;escolha dos pais -->
<g id="edge3" class="edge"><title>seleção-&gt;escolha dos pais</title>
<path fill="none" stroke="black" d="M426.939,-41C434.922,-41 443.649,-41 452.56,-41"/>
<polygon fill="black" stroke="black" points="452.67,-44.5001 462.67,-41 452.67,-37.5001 452.67,-44.5001"/>
</g>
<!-- combinação gênica -->
<g id="node5" class="node"><title>combinação gênica</title>
<ellipse fill="none" stroke="black" cx="725.048" cy="-41" rx="83.3857" ry="18"/>
<text text-anchor="middle" x="725.048" y="-37.3" font-family="Times,serif" font-size="14.00">combinação gênica</text>
</g>
<!-- escolha dos pais&#45;&gt;combinação gênica -->
<g id="edge4" class="edge"><title>escolha dos pais-&gt;combinação gênica</title>
<path fill="none" stroke="black" d="M605.89,-41C614.317,-41 623.014,-41 631.689,-41"/>
<polygon fill="black" stroke="black" points="631.845,-44.5001 641.845,-41 631.845,-37.5001 631.845,-44.5001"/>
</g>
<!-- mutação -->
<g id="node6" class="node"><title>mutação</title>
<ellipse fill="none" stroke="black" cx="886.487" cy="-18" rx="42.4939" ry="18"/>
<text text-anchor="middle" x="886.487" y="-14.3" font-family="Times,serif" font-size="14.00">mutação</text>
</g>
<!-- combinação gênica&#45;&gt;mutação -->
<g id="edge5" class="edge"><title>combinação gênica-&gt;mutação</title>
<path fill="none" stroke="black" d="M794.59,-31.1124C808.443,-29.1142 822.754,-27.0496 835.807,-25.1666"/>
<polygon fill="black" stroke="black" points="836.575,-28.5922 845.973,-23.7002 835.576,-21.6639 836.575,-28.5922"/>
</g>
<!-- mutação&#45;&gt;nova população -->
<g id="edge6" class="edge"><title>mutação-&gt;nova população</title>
<path fill="none" stroke="black" d="M844.612,-15.4879C832.874,-14.8738 820.054,-14.3057 808.241,-14 604.724,-8.73423 553.722,-10.0585 350.175,-14 341.51,-14.1678 332.438,-14.4147 323.421,-14.705"/>
<polygon fill="black" stroke="black" points="323.165,-11.2116 313.29,-15.0491 323.403,-18.2075 323.165,-11.2116"/>
</g>
</g>
</svg>